<svg width="128" height="128" viewBox="0 0 128 128" fill="none" xmlns="http://www.w3.org/2000/svg">
<path d="M120.628 100.033C121.464 98.0834 123.722 97.1807 125.672 98.0165C127.621 98.8524 128.524 101.111 127.688 103.06C125.507 108.149 122.399 112.73 118.453 116.677C113.862 121.267 108.458 124.698 102.389 126.874C101.961 127.028 101.523 127.1 101.093 127.1C99.5168 127.1 98.0396 126.123 97.4773 124.555C96.7613 122.557 97.7998 120.358 99.7966 119.642C104.789 117.853 109.239 115.027 113.021 111.244C116.273 107.992 118.833 104.22 120.628 100.033ZM75.2302 4.55459C80.1045 -0.31949 88.0361 -0.318465 92.9099 4.55459L93.0173 4.66201C94.3123 5.95671 95.2852 7.48899 95.9021 9.15908C97.7962 8.04722 99.9591 7.45205 102.214 7.45205C105.552 7.45213 108.691 8.75226 111.052 11.1132L111.216 11.2763C113.58 13.6408 114.881 16.7855 114.878 20.1298C114.877 20.9203 114.8 21.6989 114.657 22.4589C117.021 22.9162 119.277 24.0577 121.102 25.8827L121.235 26.0155C123.6 28.3806 124.9 31.5253 124.896 34.87C124.892 38.2145 123.585 41.3554 121.215 43.7147L116.081 48.829C117.568 49.4374 118.961 50.3423 120.165 51.5458C122.527 53.9088 123.828 57.0508 123.826 60.3925C123.824 63.7341 122.52 66.8739 120.155 69.2343L90.6199 98.662L81.0554 108.252C72.0949 117.236 60.1719 122.188 47.4831 122.196H47.4509C34.7736 122.197 22.8584 117.261 13.8933 108.296C6.58985 100.993 1.95206 91.7425 0.481178 81.5468C-0.940417 71.6928 0.814682 61.4362 5.42356 52.6659C11.5744 40.9614 16.0731 28.9809 18.7947 17.0595L19.364 14.5663C20.2368 10.7444 22.712 7.47754 26.155 5.60342C29.5981 3.72933 33.6856 3.42322 37.3689 4.76553C43.9139 7.15059 47.6135 14.0547 45.9743 20.8251L41.8249 37.9608L75.2302 4.55459ZM108.458 92.8749C109.293 90.9247 111.55 90.0201 113.501 90.8554C115.451 91.6899 116.355 93.9484 115.52 95.8983C113.845 99.8114 111.458 103.334 108.425 106.367C104.717 110.075 100.331 112.79 95.3884 114.438C94.9851 114.573 94.5754 114.637 94.1726 114.637C92.5646 114.637 91.0658 113.62 90.529 112.011C89.8579 109.998 90.9454 107.822 92.9577 107.151C96.7588 105.883 100.135 103.792 102.992 100.935C105.33 98.597 107.169 95.8847 108.458 92.8749ZM87.4743 9.9833C85.5986 8.10815 82.5416 8.10791 80.6628 9.98721L37.5896 53.0595C34.3065 56.0682 30.2664 52.5752 31.1404 49.4394L38.5075 19.0175C39.2256 16.0522 37.6054 13.0288 34.739 11.9843C33.1026 11.3882 31.3581 11.5177 29.8279 12.3505C28.2976 13.1835 27.241 14.5778 26.8532 16.2763L26.2839 18.7694C23.4146 31.3394 18.6845 43.9462 12.2243 56.2392C8.36256 63.5876 6.8925 72.186 8.08469 80.4501C9.31691 88.9914 13.2033 96.7428 19.3249 102.864C26.8385 110.378 36.8264 114.514 47.4509 114.515H47.4782C58.1129 114.507 68.1059 110.356 75.6159 102.826L85.1892 93.2284L114.73 63.7938C115.64 62.8861 116.143 61.6756 116.143 60.3876C116.144 59.0996 115.643 57.8883 114.732 56.9774C112.863 55.1092 109.814 55.1014 107.935 56.9608L105.43 59.4394L87.8171 76.9862C87.0679 77.7326 86.0866 78.1063 85.1062 78.1063C84.121 78.1062 83.1359 77.7294 82.3855 76.9765C80.8882 75.4736 80.8933 73.0414 82.3962 71.5438C91.6563 62.3122 106.451 47.5768 115.794 38.2714C116.709 37.3608 117.213 36.1496 117.215 34.8603C117.216 33.5711 116.715 32.359 115.803 31.4472L115.671 31.3144C113.796 29.4404 110.743 29.437 108.864 31.3065C102.731 37.4064 85.2691 54.8003 78.8601 61.1845C78.1109 61.9307 77.1304 62.3035 76.1501 62.3036C75.1645 62.3036 74.179 61.9271 73.4284 61.1737C71.9314 59.6706 71.936 57.2384 73.4392 55.7411C82.9732 46.2394 96.145 33.1248 105.776 23.5321C106.69 22.6221 107.194 21.4109 107.196 20.122C107.197 18.833 106.696 17.6205 105.785 16.7089L105.622 16.5458C104.711 15.6355 103.501 15.1347 102.214 15.1347C100.926 15.1347 99.7164 15.6355 98.8064 16.5458C95.2266 20.1253 70.7977 44.5535 66.5456 48.8056C65.0458 50.3056 62.614 50.3056 61.114 48.8056C59.614 47.3055 59.614 44.8737 61.114 43.3739C67.9958 36.4921 80.5707 23.917 87.5818 16.9062C88.4916 15.9958 88.9929 14.7852 88.9929 13.4979C88.9928 12.2108 88.4918 11.001 87.5818 10.0907L87.4743 9.9833Z" fill="black"/>
</svg>
