<svg width="128" height="128" viewBox="0 0 128 128" fill="none" xmlns="http://www.w3.org/2000/svg">
<path d="M88.5 0C94.7032 0 99.75 5.04675 99.75 11.25V12.8623C107.831 14.9783 113.75 22.3613 113.75 31V109.25C113.75 119.589 105.339 128 95 128H33C22.6613 128 14.25 119.589 14.25 109.25V31C14.25 22.3613 20.1693 14.9783 28.25 12.8623V11.25C28.25 5.04675 33.2968 0 39.5 0H88.5ZM99.7422 20.8008C99.5817 26.865 94.6023 31.75 88.5 31.75H39.5C33.3977 31.75 28.4183 26.865 28.2578 20.8008C24.4058 22.5993 21.75 26.5173 21.75 31V109.25C21.75 115.453 26.7968 120.5 33 120.5H95C101.203 120.5 106.25 115.453 106.25 109.25V31C106.25 26.5173 103.594 22.5993 99.7422 20.8008ZM31.8203 80.9238C33.5056 79.7201 35.848 80.1097 37.0518 81.7949L39 84.5234L40.9482 81.7949C42.1522 80.11 44.4942 79.7203 46.1797 80.9238C47.8647 82.1278 48.2552 84.4691 47.0518 86.1543L43.6084 90.9746L47.0518 95.7959C48.2551 97.4811 47.8647 99.8227 46.1797 101.026C45.5189 101.498 44.7572 101.726 44.0029 101.726C42.8331 101.725 41.6802 101.18 40.9482 100.155L39 97.4268L37.0518 100.154C36.3198 101.179 35.167 101.725 33.9971 101.726C33.2426 101.726 32.4811 101.498 31.8203 101.026C30.1351 99.8224 29.7445 97.4802 30.9482 95.7949L34.3916 90.9746L30.9482 86.1543C29.7448 84.4691 30.1353 82.1275 31.8203 80.9238ZM94 87.54C96.071 87.54 97.75 89.219 97.75 91.29C97.75 93.361 96.071 95.04 94 95.04H72C69.929 95.04 68.25 93.361 68.25 91.29C68.25 89.219 69.929 87.54 72 87.54H94ZM45.1221 53.5967C46.4496 52.0069 48.8136 51.7948 50.4033 53.1221C51.9928 54.4496 52.2059 56.8143 50.8789 58.4043L40.8789 70.3789C40.162 71.2373 39.1046 71.7255 38.001 71.7256C37.857 71.7256 37.7124 71.7169 37.5674 71.7002C36.3115 71.5542 35.2137 70.7854 34.6475 69.6553L30.6475 61.6719C29.7197 59.8204 30.4686 57.5664 32.3203 56.6387C34.1719 55.7109 36.4247 56.4601 37.3525 58.3115L38.7891 61.1797L45.1221 53.5967ZM94 58.2373C96.071 58.2373 97.75 59.9163 97.75 61.9873C97.75 64.0583 96.071 65.7373 94 65.7373H72C69.929 65.7373 68.25 64.0583 68.25 61.9873C68.25 59.9163 69.929 58.2373 72 58.2373H94ZM39.5 7.5C37.4323 7.5 35.75 9.18225 35.75 11.25V20.5C35.75 22.5677 37.4323 24.25 39.5 24.25H88.5C90.5677 24.25 92.25 22.5677 92.25 20.5V11.25C92.25 9.18225 90.5677 7.5 88.5 7.5H39.5Z" fill="black"/>
</svg>
