<svg width="128" height="128" viewBox="0 0 128 128" fill="none" xmlns="http://www.w3.org/2000/svg">
<path d="M128 22.5V0H0V22.5H7.5V90.5H0V98H60.25V106.145C55.8853 107.693 52.75 111.861 52.75 116.75C52.75 122.953 57.7968 128 64 128C70.2032 128 75.25 122.953 75.25 116.75C75.25 111.861 72.1147 107.693 67.75 106.145V98H128V90.5H120.5V22.5H128ZM64 120.5C61.9323 120.5 60.25 118.818 60.25 116.75C60.25 114.682 61.9323 113 64 113C66.0677 113 67.75 114.682 67.75 116.75C67.75 118.818 66.0677 120.5 64 120.5ZM7.5 7.5H120.5V15H7.5V7.5ZM113 90.5H15V22.5H113V90.5Z" fill="black"/>
</svg>
