<svg width="128" height="128" viewBox="0 0 128 128" fill="none" xmlns="http://www.w3.org/2000/svg">
<path d="M123 109H84V99H122.998H123C125.761 99 128 96.7615 128 94C128 91.2385 125.761 89 123 89H122.998C120.242 89 118 86.757 118 84C118 55.232 96.8862 31.753 69 29.2288V19H74C76.7615 19 79 16.7615 79 14C79 11.2385 76.7615 9 74 9H54C51.2385 9 49 11.2385 49 14C49 16.7615 51.2385 19 54 19H59V29.2288C31.1397 31.7505 10 55.2078 10 84C10 86.757 7.75775 89 5 89C2.2385 89 0 91.2385 0 94C0 96.7615 2.2385 99 5 99H44V109H5C2.2385 109 0 111.239 0 114C0 116.761 2.2385 119 5 119H123C125.761 119 128 116.761 128 114C128 111.239 125.761 109 123 109ZM20 84C20 58.7663 39.3272 39 64 39C88.6728 39 108 58.7663 108 84C108 85.7528 108.305 87.435 108.86 89H19.14C19.695 87.435 20 85.7528 20 84ZM54 99H74V109H54V99Z" fill="black"/>
</svg>
