<svg width="186" height="30" viewBox="0 0 186 30" fill="none" xmlns="http://www.w3.org/2000/svg">
<path d="M87.7765 17.157H98.2883V28.2931V28.5431H98.5383H104.029C111.62 28.5431 117.162 23.9579 118.154 17.157H128.472V18.3964C128.472 24.6497 132.552 29.25 138.219 29.25C143.886 29.25 147.966 24.6497 147.966 18.3964V17.157H157.872C158.916 23.8454 164.632 28.9935 171.529 28.9935C179.167 28.9935 185.376 22.7006 185.376 14.9704C185.376 7.24027 179.167 0.947288 171.529 0.947288C164.05 0.947288 157.95 6.98751 157.708 14.4968H147.966V1.00987V0.759873H147.716H145.547H145.297V1.00987V18.4063C145.297 20.8805 144.576 22.9259 143.339 24.3488C142.105 25.7686 140.343 26.5865 138.219 26.5865C136.096 26.5865 134.334 25.7686 133.1 24.3488C131.863 22.9259 131.141 20.8805 131.141 18.4063V1.00987V0.759873H130.891H128.722H128.472V1.00987V14.487H118.304C118.189 10.6668 116.713 7.41375 114.244 5.10248C111.723 2.74253 108.18 1.37801 104.032 1.37801H98.5416H98.2916V1.62801V14.487H87.9504C87.6991 6.97791 81.5994 0.937414 74.1297 0.937414C66.6603 0.937414 60.5505 6.97752 60.3086 14.487H50.5638V1V0.75H50.3138H48.1481H47.8981V1V18.3964C47.8981 20.8707 47.1764 22.916 45.9391 24.3389C44.7045 25.7587 42.9417 26.5767 40.8166 26.5767C38.6915 26.5767 36.9296 25.7587 35.6958 24.339C34.4594 22.9161 33.7384 20.8707 33.7384 18.3964V1V0.75H33.4884H31.3194H31.0694V1V14.487H20.9077C20.7932 10.6668 19.3173 7.41375 16.8479 5.10248C14.3265 2.74253 10.7843 1.37801 6.63596 1.37801H1.12573H0.875732V1.62801V28.2931V28.5431H1.12573H6.6161C14.2075 28.5431 19.7458 23.9578 20.7418 17.157H31.0628V18.3964C31.0628 24.6497 35.1431 29.25 40.81 29.25C46.4768 29.25 50.5605 24.6498 50.5605 18.3964V17.157H60.4563C61.5004 23.8454 67.2159 28.9935 74.1164 28.9935C81.0171 28.9935 86.7294 23.8549 87.7765 17.157ZM74.0648 26.1427L74.0646 26.1458C71.0725 26.1157 68.2135 24.9129 66.1108 22.7992C64.0025 20.68 62.8264 17.818 62.8393 14.84L62.8393 14.8378C62.8264 11.8598 64.0025 8.99778 66.1108 6.87856C68.2186 4.75978 71.0864 3.5562 74.0864 3.53183C77.0831 3.56043 79.9462 4.76543 82.0505 6.88305C84.1552 9.00112 85.3295 11.8599 85.3174 14.8346L85.3174 14.8367C85.3303 17.8152 84.1537 20.6778 82.0447 22.7971C79.9357 24.9165 77.0662 26.1197 74.0648 26.1427ZM182.915 14.8345V14.8367C182.928 17.8152 181.752 20.6778 179.643 22.7971C177.534 24.916 174.665 26.1192 171.665 26.1427C168.665 26.1184 165.797 24.9148 163.689 22.7959C161.581 20.6767 160.404 17.8147 160.417 14.8367V14.8345C160.404 11.8565 161.581 8.99449 163.689 6.87527C165.797 4.75644 168.665 3.55287 171.665 3.52856C174.665 3.55203 177.534 4.75523 179.643 6.87415C181.752 8.99346 182.928 11.856 182.915 14.8345ZM6.75518 25.8172H3.69374V3.85405H6.75518C10.1764 3.85405 13.0643 4.98563 15.095 6.91538C17.1248 8.84421 18.3138 11.5849 18.3138 14.8356C18.3138 18.0863 17.1248 20.827 15.095 22.7558C13.0643 24.6856 10.1764 25.8172 6.75518 25.8172ZM104.002 25.8172H100.941V3.85405H104.002C107.423 3.85405 110.311 4.98563 112.342 6.91538C114.372 8.84421 115.561 11.5849 115.561 14.8356C115.561 18.0863 114.372 20.827 112.342 22.7558C110.311 24.6856 107.423 25.8172 104.002 25.8172Z" fill="black" stroke="black" stroke-width="0.5"/>
</svg>
